<svg viewBox="0 0 2528 1684" xmlns="http://www.w3.org/2000/svg" role="img" aria-label="Always Link Solutions">
          <path fill="#FFFFFF" d="M1303.6,772.9c47.3,13.6,94.7,27.3,142.1,40.6c6.5,1.8,10.6,4.6,14.1,10.8c15.8,28.6,49.9,40.8,80,29.2c29.6-11.4,46.9-44.3,39.9-75.6c-5.8-25.7-28.4-46.8-53.8-50c-28.5-3.6-55.3,10.6-67.6,36c-1.6,3.2-3,6.6-4.6,10.2c-2-0.4-3.6-0.6-5.1-1c-40.3-11.5-80.6-23-120.9-34.6c-52.8-15.1-105.6-30.2-158.3-45.5c-4.6-1.3-8.1-1.2-11.9,2c-6.9,5.7-14.4,10.8-21.6,16.2c-3.9,2.9-7.8,5.8-13,9.6C1183.9,738.5,1243,755.5,1303.6,772.9z"/>
          <path fill="#FFFFFF" d="M1076.9,759.8c11.7-18.7,13.6-38.5,5.7-59.9c64-47.5,127.8-95,191.1-142c-9.2-10.5-18.1-20.6-27.3-31c-62.9,46.8-126.2,93.9-189.3,140.9c-4.1-1.7-7.3-3.4-10.8-4.5c-26-8.4-49.7-4.9-69.1,15c-19.2,19.7-24.3,43.4-14.5,69.2c8.8,23,26.5,36.8,50.7,40.2C1039.1,791.3,1060.6,782.7,1076.9,759.8z"/>
          <path fill="#FFFFFF" d="M1478.3,680.6c-31.5-52.5-63-105-94.3-157.2c23.6-36,12.8-68.3-6.4-87.3c-21.3-21-54.6-24.4-80.1-8.5c-25.2,15.7-36.5,45.5-27.9,73.7c9.9,32.4,36,47.4,78.8,44.9c17.3,28.6,34.9,57.7,52.4,86.6c17.7,29.2,35.5,58.4,52.8,87.1c12.4-7.5,23.7-14.3,35.4-21.4C1485.6,692.6,1482.3,687.2,1478.3,680.6z"/>
          <!-- Texte ALWAYS LINK + SOLUTIONS -->
          <g fill="#FFFFFF">
            <text x="1264" y="1120" font-family="Inter, Helvetica, Arial, sans-serif" font-size="178" font-weight="500" letter-spacing="18" text-anchor="middle">ALWAYS LINK</text>
            <text x="1264" y="1240" font-family="IBM Plex Mono, Menlo, monospace" font-size="78" font-weight="400" letter-spacing="30" text-anchor="middle">SOLUTIONS</text>
          </g>
        </svg>
