<svg version="1.1" id="Layer_1" xmlns="http://www.w3.org/2000/svg" xmlns:xlink="http://www.w3.org/1999/xlink" x="0px" y="0px"
	 width="100%" viewBox="0 0 1024 672" enable-background="new 0 0 1024 672" xml:space="preserve">
<path fill="#000000" opacity="1.000000" stroke="none" 
	d="
M596.174805,340.900635 
	C594.867676,339.580017 593.393188,338.665741 592.886963,337.372467 
	C590.401367,331.022552 584.793518,329.791321 579.124268,328.180603 
	C540.537109,317.217651 501.983887,306.134949 463.436951,295.031219 
	C460.612183,294.217529 457.601532,293.699280 454.331360,291.193451 
	C459.523132,287.070953 464.203094,282.988556 469.666901,279.954224 
	C471.326874,279.032349 473.255341,280.129242 475.001068,280.627869 
	C509.416077,290.457581 543.827087,300.301453 578.237366,310.147827 
	C579.837646,310.605804 581.470398,310.998962 583.006653,311.622772 
	C586.447571,313.019958 588.147949,311.945831 589.882751,308.538971 
	C597.340149,293.893982 615.012085,289.348236 628.746765,298.202515 
	C641.659119,306.526672 644.593567,324.855225 635.018005,337.372314 
	C626.279236,348.795563 609.538025,350.427795 596.174805,340.900635 
z"/>
<path fill="#000000" opacity="1.000000" stroke="none" 
	d="
M402.378662,316.922302 
	C388.447235,309.404358 383.443756,295.293488 389.572784,281.627991 
	C395.360077,268.724426 410.069702,262.781921 423.984344,268.035461 
	C426.733673,269.073486 428.465820,268.748199 430.713135,267.075073 
	C453.809448,249.879364 476.984222,232.788971 500.143524,215.677917 
	C501.467224,214.699936 502.846954,213.797775 504.593628,212.588150 
	C508.389496,216.937149 511.451385,221.700424 516.300293,224.898438 
	C513.871704,228.566956 510.521332,230.196304 507.647125,232.329468 
	C486.000305,248.394989 464.330414,264.429657 442.608551,280.393402 
	C440.207367,282.158081 439.372559,283.752289 439.939728,286.987091 
	C441.750549,297.314911 439.405365,306.712891 430.952789,313.511932 
	C422.438721,320.360382 412.802795,321.145264 402.378662,316.922302 
z"/>
<path fill="#000000" opacity="1.000000" stroke="none" 
	d="
M552.657043,233.281006 
	C551.611572,231.541992 550.674377,230.157303 549.896912,228.688080 
	C547.396484,223.962662 544.927979,221.091415 538.149597,221.620697 
	C526.693604,222.515213 515.962524,212.940720 513.069824,201.679306 
	C510.253052,190.713211 514.865112,178.685638 524.152771,172.776764 
	C534.280029,166.333771 547.855835,167.189087 556.759949,174.831131 
	C565.609436,182.426285 568.895935,195.097443 563.700562,205.644852 
	C561.261902,210.595886 561.907471,213.992294 564.595337,218.352951 
	C576.649902,237.910049 588.404419,257.652283 600.228394,277.351013 
	C601.232239,279.023529 602.648743,280.542450 602.815430,283.156097 
	C598.747498,285.595703 594.123535,287.500183 590.301270,290.744446 
	C588.161194,292.560913 587.168945,290.243408 586.233337,288.698547 
	C576.660339,272.891266 567.093262,257.080444 557.521179,241.272614 
	C555.968750,238.708817 554.399841,236.155029 552.657043,233.281006 
z"/>
<path fill="#000000" opacity="1.000000" stroke="none" 
	d="
M352.809204,391.864777 
	C360.994751,391.545197 361.020416,391.535919 363.702026,398.943909 
	C365.904694,405.028961 368.036896,411.139557 370.449280,417.940552 
	C373.612244,413.151276 374.422852,408.075195 376.393005,403.514252 
	C377.510559,400.926971 378.408020,398.215271 379.104828,395.483124 
	C379.937469,392.218292 382.031891,391.598755 385.055664,391.587646 
	C388.111145,391.576416 390.056580,392.401276 391.095703,395.485199 
	C393.576691,402.848297 396.270935,410.139496 399.166992,418.267914 
	C402.682922,411.261200 404.270630,404.628296 406.603210,398.280640 
	C409.289337,390.970642 410.043640,390.513824 417.999969,392.401245 
	C418.498779,394.500214 417.355377,396.274658 416.707794,398.105042 
	C413.101227,408.298706 409.289673,418.421631 405.818237,428.660309 
	C404.711304,431.925049 402.893005,433.015350 399.600677,433.058350 
	C396.239044,433.102295 394.364655,431.817902 393.306915,428.669128 
	C390.781158,421.150208 388.086243,413.688110 385.016907,404.941345 
	C382.004852,413.431519 379.300812,420.669403 376.894073,428.004883 
	C375.750092,431.491608 373.943115,433.088593 370.079437,433.047211 
	C366.255463,433.006256 364.979645,430.990448 363.878906,427.878357 
	C360.217834,417.527710 356.322479,407.260071 352.590240,396.934174 
	C352.019714,395.355621 350.530365,393.675507 352.809204,391.864777 
z"/>
<path fill="#000000" opacity="1.000000" stroke="none" 
	d="
M702.657410,400.053192 
	C702.683289,391.738556 703.145020,391.205627 708.418274,391.640594 
	C710.716919,391.830231 711.839417,392.895660 711.855164,395.007935 
	C711.940796,406.480743 711.957275,417.954132 711.963318,429.427338 
	C711.964172,431.063019 711.316406,432.452332 709.500305,432.654297 
	C706.035400,433.039642 702.667847,433.494659 699.867493,430.308960 
	C693.610718,423.191162 687.112793,416.285522 680.727173,409.280579 
	C679.730896,408.187622 678.809143,407.026794 677.445984,405.416718 
	C675.666748,409.388336 676.558960,412.824402 676.421875,416.122040 
	C676.256226,420.106873 676.237244,424.109192 676.406982,428.093170 
	C676.549316,431.432007 675.375488,432.965454 671.863647,432.949371 
	C668.237366,432.932770 666.829834,431.433960 666.881897,427.832336 
	C667.021179,418.187805 666.876892,408.539062 667.028625,398.894897 
	C667.067200,396.444946 665.828064,392.833374 669.186218,392.021393 
	C672.751953,391.159271 676.658569,390.780365 679.731384,394.359070 
	C685.253845,400.790588 691.046082,406.992798 696.804626,413.217773 
	C698.336243,414.873413 699.569397,416.929047 702.657227,418.159851 
	C702.657227,412.011719 702.657227,406.278015 702.657410,400.053192 
z"/>
<path fill="#000000" opacity="1.000000" stroke="none" 
	d="
M541.810913,390.692932 
	C548.306030,391.334229 554.041199,392.668793 558.423828,397.264893 
	C555.055786,403.330261 554.503662,403.433014 549.035583,400.703278 
	C544.442566,398.410309 539.606445,397.517029 534.528381,399.165283 
	C532.698975,399.759094 530.823547,400.507141 530.743042,402.616302 
	C530.645935,405.161072 532.933167,405.857452 534.849060,406.233643 
	C539.738831,407.193756 544.706116,407.761017 549.593201,408.732727 
	C553.241577,409.458160 556.614807,410.940094 558.790283,414.214661 
	C561.995483,419.039276 560.991150,425.467407 556.533264,429.073120 
	C548.242126,435.779205 527.516174,434.730347 519.960938,427.195648 
	C519.517761,426.753662 519.290344,426.095306 518.996277,425.595032 
	C523.162781,419.839325 523.610901,419.758270 529.090698,422.865448 
	C534.404053,425.878235 540.061768,426.654785 545.951599,424.952606 
	C548.175598,424.309906 550.799133,423.592621 550.552124,420.567749 
	C550.319153,417.714417 547.719604,416.925293 545.463135,416.546539 
	C539.731689,415.584534 533.854492,415.406708 528.326965,413.383209 
	C521.681580,410.950531 518.848755,405.049408 521.396606,399.087280 
	C522.878113,395.620422 525.760193,393.770111 529.089539,392.386688 
	C533.039978,390.745148 537.163452,390.524719 541.810913,390.692932 
z"/>
<path fill="#000000" opacity="1.000000" stroke="none" 
	d="
M456.618103,428.339874 
	C455.344910,424.824677 453.031616,423.809723 449.819336,423.988403 
	C446.829712,424.154663 443.811646,424.178528 440.826324,423.972351 
	C435.530823,423.606567 431.408752,424.165649 429.062958,430.281128 
	C427.334564,434.787018 422.805634,433.061981 419.311584,432.164673 
	C418.558350,430.156311 419.563629,428.887115 420.216797,427.602356 
	C425.727936,416.762604 431.229279,405.917114 436.854218,395.136322 
	C439.429108,390.201233 447.703461,389.919495 450.293640,394.788757 
	C456.314880,406.108185 462.079407,417.564392 467.905304,428.986938 
	C468.332428,429.824402 468.416931,430.836548 468.650909,431.729889 
	C462.135681,434.195251 459.605713,433.515198 456.618103,428.339874 
M444.401367,403.848633 
	C443.710144,403.079895 442.880402,402.982330 442.406097,403.906616 
	C440.545593,407.532410 438.289917,410.991425 437.071564,415.331726 
	C441.406128,415.904327 445.353455,416.352692 449.490479,414.905670 
	C448.721466,410.791534 446.460785,407.693085 444.401367,403.848633 
z"/>
<path fill="#000000" opacity="1.000000" stroke="none" 
	d="
M305.106079,432.776886 
	C300.158447,433.473022 296.502747,432.601562 294.990173,427.495453 
	C294.167328,424.717651 291.999329,423.799225 289.151459,423.914734 
	C285.660156,424.056335 282.139618,424.163605 278.665314,423.877716 
	C273.544800,423.456360 270.019348,424.557983 267.756683,429.990112 
	C265.792206,434.706329 261.238831,432.965363 256.663910,432.030670 
	C260.942505,423.709747 264.932831,415.908691 268.963196,408.128326 
	C271.030914,404.136719 273.444000,400.298584 275.195770,396.176361 
	C276.769745,392.472565 279.213013,391.596863 282.991913,391.547363 
	C286.833038,391.497070 288.581879,393.183075 290.131317,396.354279 
	C295.317810,406.969513 300.790558,417.444550 306.051331,428.024200 
	C306.800812,429.531525 308.988434,431.578674 305.106079,432.776886 
M287.884094,412.443726 
	C286.181274,409.091034 284.853729,405.526031 282.218750,402.176849 
	C280.002289,406.683350 277.240509,410.531921 275.952271,415.279633 
	C279.515259,416.154114 282.658966,415.774872 285.779663,415.738525 
	C287.426392,415.719360 288.862885,415.340729 287.884094,412.443726 
z"/>
<path fill="#000000" opacity="1.000000" stroke="none" 
	d="
M728.227173,392.006348 
	C736.295593,391.446411 736.298645,391.446411 736.321716,398.763550 
	C736.330933,401.689331 736.323242,404.615143 736.323242,408.794495 
	C742.019104,404.013275 747.043457,400.426178 751.277466,396.070770 
	C755.848999,391.368256 761.000488,391.069946 767.632324,392.179138 
	C762.754028,399.094604 755.177368,402.585114 750.366272,409.065674 
	C756.105713,417.399414 764.058655,423.620209 770.315674,431.512604 
	C763.364624,434.249023 759.402466,433.462891 755.139954,428.737183 
	C752.015076,425.272797 749.000061,421.708588 745.841187,418.276215 
	C744.693481,417.029022 743.787537,414.571777 741.580383,415.749176 
	C739.326721,416.951385 736.646790,418.198151 736.410156,421.347717 
	C736.248169,423.503479 736.155579,425.695099 736.355164,427.840637 
	C736.701843,431.569824 734.971863,432.844452 731.456055,432.954498 
	C727.689941,433.072357 726.568298,431.410736 726.621521,427.840515 
	C726.775330,417.509827 726.653931,407.175201 726.696411,396.842377 
	C726.703064,395.232361 726.304443,393.458862 728.227173,392.006348 
z"/>
<path fill="#000000" opacity="1.000000" stroke="none" 
	d="
M528.543457,236.591400 
	C530.333923,235.264267 531.790833,234.794861 533.125488,236.632553 
	C533.419128,237.036896 533.729370,237.429199 534.031738,237.827240 
	C542.860535,249.452759 542.843750,249.430389 531.329346,258.063263 
	C525.200195,262.658478 519.099426,267.293793 513.071411,272.020203 
	C510.768402,273.825958 508.571625,274.403351 505.711731,273.301178 
	C500.042084,271.116241 493.843658,270.412750 487.104187,267.005768 
	C501.351501,256.540833 514.799744,246.662811 528.543457,236.591400 
z"/>
<path fill="#000000" opacity="1.000000" stroke="none" 
	d="
M490.945374,407.331787 
	C494.864990,404.248962 497.173218,400.142426 500.031708,396.492645 
	C504.249756,391.106995 505.966370,390.497406 513.509949,392.569458 
	C512.810303,395.629089 510.422302,397.599304 508.692963,399.912537 
	C505.008484,404.841064 501.225067,409.702820 497.307220,414.447449 
	C494.005798,418.445587 495.648407,423.068207 495.370483,427.421448 
	C495.042694,432.556641 494.173584,433.413818 489.033813,432.936554 
	C486.634644,432.713776 484.983948,431.737549 485.536163,429.240265 
	C487.812805,418.944946 482.033325,411.909912 476.101349,404.807617 
	C472.956360,401.042175 470.133423,397.007751 467.015106,392.897095 
	C474.779633,390.309998 477.389282,391.203003 481.758789,396.733521 
	C484.616150,400.350037 486.650055,404.676422 490.945374,407.331787 
z"/>
<path fill="#000000" opacity="1.000000" stroke="none" 
	d="
M327.024048,412.973816 
	C327.055847,424.701721 327.055847,424.699677 338.528992,424.703979 
	C341.691620,424.705170 344.855988,424.792511 348.016327,424.711884 
	C350.845581,424.639709 352.303467,425.596130 352.321869,428.723663 
	C352.339996,431.810150 350.883545,432.925079 348.103729,432.924500 
	C339.115723,432.922668 330.127716,432.912048 321.139740,432.889130 
	C318.378632,432.882050 316.809937,431.738678 316.824066,428.702576 
	C316.875153,417.716919 316.903839,406.729919 316.781830,395.745209 
	C316.738342,391.829193 319.057251,391.684418 321.993500,391.605743 
	C325.208160,391.519562 327.076019,392.378723 327.008057,396.001587 
	C326.905090,401.492218 327.009277,406.986725 327.024048,412.973816 
z"/>
<path fill="#000000" opacity="1.000000" stroke="none" 
	d="
M595.652222,406.006805 
	C595.653992,402.515839 595.812134,399.513123 595.619385,396.533081 
	C595.382202,392.866150 596.869080,391.594147 600.534973,391.582153 
	C604.339722,391.569733 605.415833,393.162872 605.350281,396.677032 
	C605.204590,404.488434 605.432068,412.307129 605.262512,420.117554 
	C605.187378,423.579956 606.436768,424.872986 609.902893,424.754272 
	C615.549072,424.560944 621.207092,424.739258 626.859314,424.686066 
	C629.498230,424.661255 631.290222,425.153076 631.357178,428.453918 
	C631.423584,431.726807 630.072083,432.964172 626.973328,432.949738 
	C617.995850,432.907928 609.017883,432.892975 600.040588,432.952698 
	C596.525513,432.976074 595.534424,431.234070 595.609741,427.951416 
	C595.773682,420.806091 595.655701,413.654266 595.652222,406.006805 
z"/>
<path fill="#000000" opacity="1.000000" stroke="none" 
	d="
M652.177979,400.079590 
	C652.187256,409.531311 652.079102,418.497833 652.253418,427.458862 
	C652.325867,431.185608 651.146118,432.954346 647.189514,432.987762 
	C643.295593,433.020630 641.870728,431.429840 641.961731,427.621063 
	C642.215271,417.006805 642.368835,406.387451 642.338806,395.770752 
	C642.330383,392.787964 643.175720,391.451019 646.268677,391.636078 
	C649.083618,391.804474 652.243958,391.195496 652.131897,395.608887 
	C652.098206,396.935425 652.157776,398.264374 652.177979,400.079590 
z"/>
<path fill="#000000" opacity="1.000000" stroke="none" 
	d="
M561.824341,463.231201 
	C564.126648,454.581482 569.427795,450.702972 576.424255,452.166412 
	C583.217834,453.587372 587.030334,458.266724 586.688293,464.763855 
	C586.368225,470.843567 581.430786,475.569641 574.872192,476.074036 
	C568.785461,476.542145 563.614014,472.738556 562.077698,466.596039 
	C561.840332,465.646973 561.874512,464.630005 561.824341,463.231201 
M567.020264,461.513550 
	C565.769104,467.905823 570.460205,473.047119 576.049622,471.302948 
	C579.510681,470.222961 581.869751,468.031799 581.874939,464.102722 
	C581.879944,460.285187 579.900269,457.709656 576.349365,456.662811 
	C572.280701,455.463379 569.185120,456.988159 567.020264,461.513550 
z"/>
<path fill="#000000" opacity="1.000000" stroke="none" 
	d="
M607.244629,453.566345 
	C610.870972,457.870483 614.250610,461.897552 617.630310,465.924622 
	C618.011536,465.831177 618.392822,465.737732 618.774048,465.644287 
	C618.774048,462.572906 618.720093,459.500244 618.794983,456.430695 
	C618.837585,454.686523 618.410583,452.323975 621.144653,452.363464 
	C623.510681,452.397644 623.256348,454.547760 623.270630,456.153534 
	C623.317993,461.473022 623.300903,466.793457 623.259521,472.113159 
	C623.249512,473.401062 623.469666,474.949890 621.759766,475.418274 
	C620.289368,475.821014 619.236267,474.972626 618.333191,473.896057 
	C614.861206,469.757111 611.377136,465.628265 607.006653,460.437500 
	C607.006653,465.209930 607.049622,468.642670 606.988281,472.073547 
	C606.958130,473.764099 606.836182,475.663361 604.454895,475.534241 
	C602.279114,475.416290 602.575928,473.633820 602.585083,472.144196 
	C602.618835,466.658325 602.632080,461.172241 602.687988,455.686615 
	C602.721252,452.421112 603.990417,451.263824 607.244629,453.566345 
z"/>
<path fill="#000000" opacity="1.000000" stroke="none" 
	d="
M422.547485,472.550781 
	C417.847473,476.445831 413.018951,477.066254 407.877991,474.581818 
	C403.770508,472.596832 401.655945,469.256073 401.546173,464.661163 
	C401.404968,458.750580 403.776062,454.927795 408.890442,452.889618 
	C413.949097,450.873657 419.636993,452.093597 423.046326,455.925873 
	C426.362274,459.653168 426.991119,465.177094 424.563416,469.864166 
	C424.111420,470.736755 423.407837,471.479034 422.547485,472.550781 
M417.772858,457.575165 
	C414.325470,455.480591 411.056549,455.799164 408.271332,458.657532 
	C405.818390,461.174896 405.437439,464.256805 407.023376,467.389282 
	C408.390350,470.089294 410.603241,471.785919 413.778839,471.635132 
	C417.042450,471.480194 419.420288,469.794647 420.808472,466.862305 
	C422.511749,463.264282 420.958191,460.480530 417.772858,457.575165 
z"/>
<path fill="#000000" opacity="1.000000" stroke="none" 
	d="
M656.046143,465.269409 
	C658.515930,472.123688 655.171631,476.328278 647.877441,476.089294 
	C646.736023,476.051910 645.534851,475.837585 644.485779,475.404083 
	C642.368286,474.529114 638.570007,474.408264 639.535706,471.227722 
	C640.697327,467.401520 643.233276,470.950287 645.178955,471.250336 
	C646.317444,471.425964 647.465698,471.674927 648.607117,471.662445 
	C650.303345,471.643829 652.220398,471.396729 652.353333,469.279053 
	C652.466919,467.470001 650.650818,467.003479 649.265808,466.529022 
	C647.234131,465.833069 645.065674,465.485046 643.108704,464.635712 
	C640.653687,463.570251 639.142029,461.615784 639.360657,458.759491 
	C639.566711,456.066833 640.859558,454.067535 643.404541,452.968506 
	C646.972900,451.427551 650.528564,451.578033 654.013977,453.165436 
	C655.217224,453.713470 656.533447,454.504944 655.899597,456.165314 
	C655.293396,457.753418 653.914795,457.766327 652.562012,457.210205 
	C651.000977,456.568420 649.424561,456.146179 647.725952,456.318237 
	C646.342102,456.458435 644.949707,456.818329 644.629395,458.335083 
	C644.233276,460.210632 645.697205,461.070282 647.145386,461.471252 
	C650.170105,462.308838 653.363770,462.653259 656.046143,465.269409 
z"/>
<path fill="#000000" opacity="1.000000" stroke="none" 
	d="
M492.544556,467.131073 
	C490.814148,473.694427 486.979523,476.625366 481.445129,475.963104 
	C475.590424,475.262512 472.789398,471.888000 472.681946,465.285797 
	C472.627777,461.958313 472.670776,458.628571 472.716888,455.300507 
	C472.735931,453.929199 472.876923,452.504791 474.747040,452.493896 
	C476.454346,452.483917 477.050751,453.671051 477.086639,455.131012 
	C477.168488,458.457855 477.168365,461.786957 477.178741,465.115204 
	C477.190063,468.737305 478.543610,471.475708 482.502350,471.568970 
	C486.574310,471.664886 487.828766,468.751190 487.963562,465.241272 
	C488.091248,461.917023 488.013306,458.585297 488.107727,455.259155 
	C488.146912,453.878571 488.510437,452.488312 490.212524,452.351074 
	C492.215485,452.189575 492.834595,453.678345 492.847656,455.252258 
	C492.879211,459.071991 492.718048,462.893280 492.544556,467.131073 
z"/>
<path fill="#000000" opacity="1.000000" stroke="none" 
	d="
M383.518494,463.317474 
	C386.811218,465.013184 387.817108,467.516968 387.122345,470.591339 
	C386.458649,473.528442 384.106873,474.709839 381.404297,475.508575 
	C377.589691,476.635895 374.173340,475.560547 370.866547,473.859100 
	C369.670959,473.243988 368.577576,472.295715 369.438110,470.662292 
	C370.269318,469.084534 371.539642,469.204895 372.808685,469.998810 
	C374.696686,471.179901 376.669647,471.899689 378.936188,471.684448 
	C380.531586,471.532990 382.051208,471.093658 382.278015,469.316650 
	C382.491302,467.645386 380.912781,467.153778 379.710358,466.703217 
	C378.005096,466.064240 376.162933,465.782288 374.474213,465.109436 
	C371.673981,463.993683 369.611755,462.178253 369.730103,458.816406 
	C369.852844,455.328979 371.883606,453.509735 375.041565,452.427002 
	C378.105835,451.376404 380.968750,451.912140 383.783020,453.048431 
	C385.096893,453.578888 386.875763,454.186462 386.005920,456.226562 
	C385.322540,457.829224 383.933655,457.449921 382.569153,457.095001 
	C381.141846,456.723785 379.669952,456.419128 378.203033,456.333282 
	C376.597717,456.239349 375.065369,456.878998 374.733673,458.562958 
	C374.364990,460.434540 375.922821,461.114685 377.406006,461.558502 
	C379.312683,462.129089 381.245667,462.611725 383.518494,463.317474 
z"/>
<path fill="#000000" opacity="1.000000" stroke="none" 
	d="
M515.169067,474.106171 
	C514.946655,469.561951 514.772339,465.409912 514.849304,461.262573 
	C514.906067,458.207031 514.448303,455.959198 510.591339,456.272003 
	C509.151764,456.388794 507.275116,456.393005 507.353027,454.214935 
	C507.423950,452.233276 509.191803,452.028900 510.683472,452.011749 
	C515.167664,451.960114 519.654541,451.984070 524.137695,452.091797 
	C525.474670,452.123901 526.939392,452.489716 526.933350,454.264740 
	C526.927063,456.101990 525.431580,456.364014 524.095825,456.248688 
	C519.843079,455.881622 519.097290,458.261902 519.274353,461.798859 
	C519.448669,465.279236 519.324341,468.776184 519.282166,472.265289 
	C519.246338,475.223145 518.161499,476.442810 515.169067,474.106171 
z"/>
<path fill="#000000" opacity="1.000000" stroke="none" 
	d="
M446.229156,464.840942 
	C445.430634,470.303833 447.427795,472.492706 452.531952,471.693542 
	C453.501343,471.541779 454.521637,471.662506 455.514221,471.724884 
	C456.710205,471.800049 457.924225,471.974304 457.943604,473.566040 
	C457.962921,475.152405 456.784943,475.447815 455.568817,475.449280 
	C451.918091,475.453613 448.267181,475.390839 444.616516,475.339508 
	C442.486420,475.309601 441.750488,474.017365 441.747894,472.095276 
	C441.740265,466.452240 441.720551,460.809113 441.739227,455.166168 
	C441.743896,453.756470 442.083923,452.379272 443.818085,452.330292 
	C445.856537,452.272675 446.171265,453.820496 446.194366,455.406311 
	C446.237854,458.393433 446.220398,461.381439 446.229156,464.840942 
z"/>
<path fill="#000000" opacity="1.000000" stroke="none" 
	d="
M543.965393,475.404358 
	C542.437195,475.136688 541.803589,474.408417 541.796997,473.294373 
	C541.760559,467.145142 541.750183,460.995575 541.769165,454.846252 
	C541.773071,453.579803 542.282532,452.525940 543.706177,452.374786 
	C545.091614,452.227692 546.053711,452.992279 546.084167,454.326904 
	C546.235596,460.961182 546.640198,467.605438 545.809814,474.220490 
	C545.753296,474.670959 544.875244,475.018372 543.965393,475.404358 
z"/>
</svg>