<svg xmlns="http://www.w3.org/2000/svg" viewBox="373.00 155.89 282.04 204.99" width="282" height="204">
  <path fill="#0F1D31" opacity="1.000000" stroke="none" 
	d="
M596.174805,340.900635 
	C594.867676,339.580017 593.393188,338.665741 592.886963,337.372467 
	C590.401367,331.022552 584.793518,329.791321 579.124268,328.180603 
	C540.537109,317.217651 501.983887,306.134949 463.436951,295.031219 
	C460.612183,294.217529 457.601532,293.699280 454.331360,291.193451 
	C459.523132,287.070953 464.203094,282.988556 469.666901,279.954224 
	C471.326874,279.032349 473.255341,280.129242 475.001068,280.627869 
	C509.416077,290.457581 543.827087,300.301453 578.237366,310.147827 
	C579.837646,310.605804 581.470398,310.998962 583.006653,311.622772 
	C586.447571,313.019958 588.147949,311.945831 589.882751,308.538971 
	C597.340149,293.893982 615.012085,289.348236 628.746765,298.202515 
	C641.659119,306.526672 644.593567,324.855225 635.018005,337.372314 
	C626.279236,348.795563 609.538025,350.427795 596.174805,340.900635 
z"/>
  <path fill="#0F1D31" opacity="1.000000" stroke="none" 
	d="
M402.378662,316.922302 
	C388.447235,309.404358 383.443756,295.293488 389.572784,281.627991 
	C395.360077,268.724426 410.069702,262.781921 423.984344,268.035461 
	C426.733673,269.073486 428.465820,268.748199 430.713135,267.075073 
	C453.809448,249.879364 476.984222,232.788971 500.143524,215.677917 
	C501.467224,214.699936 502.846954,213.797775 504.593628,212.588150 
	C508.389496,216.937149 511.451385,221.700424 516.300293,224.898438 
	C513.871704,228.566956 510.521332,230.196304 507.647125,232.329468 
	C486.000305,248.394989 464.330414,264.429657 442.608551,280.393402 
	C440.207367,282.158081 439.372559,283.752289 439.939728,286.987091 
	C441.750549,297.314911 439.405365,306.712891 430.952789,313.511932 
	C422.438721,320.360382 412.802795,321.145264 402.378662,316.922302 
z"/>
  <path fill="#0F1D31" opacity="1.000000" stroke="none" 
	d="
M552.657043,233.281006 
	C551.611572,231.541992 550.674377,230.157303 549.896912,228.688080 
	C547.396484,223.962662 544.927979,221.091415 538.149597,221.620697 
	C526.693604,222.515213 515.962524,212.940720 513.069824,201.679306 
	C510.253052,190.713211 514.865112,178.685638 524.152771,172.776764 
	C534.280029,166.333771 547.855835,167.189087 556.759949,174.831131 
	C565.609436,182.426285 568.895935,195.097443 563.700562,205.644852 
	C561.261902,210.595886 561.907471,213.992294 564.595337,218.352951 
	C576.649902,237.910049 588.404419,257.652283 600.228394,277.351013 
	C601.232239,279.023529 602.648743,280.542450 602.815430,283.156097 
	C598.747498,285.595703 594.123535,287.500183 590.301270,290.744446 
	C588.161194,292.560913 587.168945,290.243408 586.233337,288.698547 
	C576.660339,272.891266 567.093262,257.080444 557.521179,241.272614 
	C555.968750,238.708817 554.399841,236.155029 552.657043,233.281006 
z"/>
  <path fill="#0F1D31" opacity="1.000000" stroke="none" 
	d="
M528.543457,236.591400 
	C530.333923,235.264267 531.790833,234.794861 533.125488,236.632553 
	C533.419128,237.036896 533.729370,237.429199 534.031738,237.827240 
	C542.860535,249.452759 542.843750,249.430389 531.329346,258.063263 
	C525.200195,262.658478 519.099426,267.293793 513.071411,272.020203 
	C510.768402,273.825958 508.571625,274.403351 505.711731,273.301178 
	C500.042084,271.116241 493.843658,270.412750 487.104187,267.005768 
	C501.351501,256.540833 514.799744,246.662811 528.543457,236.591400 
z"/>
</svg>
