<svg version="1.1" id="Layer_1" xmlns="http://www.w3.org/2000/svg" xmlns:xlink="http://www.w3.org/1999/xlink" x="0px" y="0px"
	 width="100%" viewBox="0 0 2528 1684" enable-background="new 0 0 2528 1684" xml:space="preserve">
<path fill="#FFFFFF" opacity="1.000000" stroke="none" 
	d="
M1302.866455,772.691284 
	C1242.977783,755.460144 1183.856445,738.483948 1122.680786,720.917969 
	C1127.894531,717.045898 1131.781982,714.153748 1135.674805,711.268860 
	C1142.901367,705.913330 1150.335327,700.810852 1157.279297,695.111511 
	C1161.139282,691.943420 1164.561279,691.767212 1169.177979,693.106445 
	C1221.911255,708.404602 1274.702637,723.503357 1327.486938,738.625671 
	C1367.793457,750.173279 1408.110962,761.682922 1448.430298,773.185852 
	C1449.968262,773.624573 1451.577148,773.815063 1453.547607,774.197876 
	C1455.168457,770.561401 1456.541016,767.219788 1458.120850,763.979248 
	C1470.512329,738.562317 1497.228271,724.353760 1525.773071,727.951965 
	C1551.165649,731.152832 1573.841187,752.189575 1579.605347,777.893738 
	C1586.635620,809.243958 1569.307617,842.118164 1539.737915,853.528809 
	C1509.684204,865.126160 1475.569824,852.989929 1459.755127,824.349121 
	C1456.342407,818.168701 1452.146240,815.382874 1445.687988,813.564514 
	C1398.282593,800.217102 1350.973389,786.527832 1302.866455,772.691284 
z"/>
<path fill="#FFFFFF" opacity="1.000000" stroke="none" 
	d="
M1076.486450,760.436646 
	C1060.625977,782.728027 1039.083862,791.272034 1013.372192,787.688416 
	C989.123047,784.308594 971.429138,770.510315 962.659851,747.492432 
	C952.852783,721.750610 957.983459,697.969849 977.172180,678.311401 
	C996.576416,658.432129 1020.345215,654.826050 1046.291260,663.274597 
	C1049.749634,664.400635 1053.026611,666.083435 1057.089233,667.805786 
	C1120.178467,620.848755 1183.476196,573.736450 1246.392334,526.908264 
	C1255.533447,537.310303 1264.442017,547.447632 1273.649292,557.925049 
	C1210.345093,604.956421 1146.499634,652.389771 1082.534180,699.912354 
	C1090.498657,721.311829 1088.609619,741.095947 1076.486450,760.436646 
z"/>
<path fill="#FFFFFF" opacity="1.000000" stroke="none" 
	d="
M1478.651733,681.207764 
	C1482.306152,687.213379 1485.566895,692.600098 1489.063110,698.375854 
	C1477.354492,705.444580 1466.089600,712.245361 1453.660767,719.748962 
	C1436.272583,691.106812 1418.536011,661.922119 1400.831055,632.718140 
	C1383.259155,603.733521 1365.719238,574.729553 1348.382812,546.093323 
	C1305.469727,548.598022 1279.458130,533.609009 1269.522827,501.213257 
	C1260.887207,473.055481 1272.182373,443.233551 1297.413086,427.576813 
	C1322.979980,411.711548 1356.208008,415.141602 1377.548950,436.128082 
	C1396.795532,455.055115 1407.586426,487.386505 1383.990234,523.415588 
	C1415.305176,575.627136 1446.781616,628.107910 1478.651733,681.207764 
z"/>
<path fill="#FFFFFF" opacity="1.000000" stroke="none" 
	d="
M878.539124,968.634766 
	C883.016968,968.637695 886.666992,968.637695 891.402832,968.637695 
	C899.428223,991.280334 907.457764,1013.934631 915.487305,1036.588989 
	C916.133667,1036.614136 916.779968,1036.639404 917.426331,1036.664673 
	C925.557922,1014.132690 933.689453,991.600769 941.850647,968.986816 
	C948.822754,968.986816 955.046875,968.986816 962.024292,968.986816 
	C970.035400,991.393799 978.064758,1013.852051 986.094177,1036.310303 
	C986.773743,1036.407104 987.453308,1036.503906 988.132874,1036.600586 
	C996.039062,1014.063110 1003.945312,991.525513 1011.830383,969.048218 
	C1019.215332,969.048218 1025.768799,969.048218 1033.691406,969.048218 
	C1021.588562,1002.495605 1009.774048,1035.146240 998.052734,1067.539062 
	C990.622437,1067.539062 984.030518,1067.539062 976.898743,1067.539062 
	C968.704529,1044.677246 960.580200,1022.010437 952.455872,999.343689 
	C951.851074,999.362976 951.246216,999.382324 950.641418,999.401611 
	C942.649353,1022.059082 934.657288,1044.716553 926.618713,1067.506104 
	C919.322205,1067.506104 912.764404,1067.506104 905.126038,1067.506104 
	C893.227417,1035.193115 881.230347,1002.612854 868.913574,969.164246 
	C872.620117,968.940002 875.165649,968.785950 878.539124,968.634766 
z"/>
<path fill="#FFFFFF" opacity="1.000000" stroke="none" 
	d="
M1734.587036,1066.647461 
	C1713.796875,1044.465698 1693.612427,1022.807617 1673.406494,1001.169739 
	C1673.268066,1001.021606 1672.832031,1001.151306 1671.222656,1001.151306 
	C1669.821655,1007.987854 1670.738037,1015.153870 1670.587402,1022.194031 
	C1670.423584,1029.845459 1670.582031,1037.503540 1670.589722,1045.158691 
	C1670.597046,1052.443970 1670.591431,1059.729370 1670.591431,1067.484497 
	C1663.657715,1067.484497 1657.494385,1067.484497 1650.683105,1067.484497 
	C1650.683105,1034.785767 1650.683105,1002.359131 1650.683105,968.662659 
	C1656.684082,968.662659 1662.650513,968.102783 1668.428955,968.902100 
	C1671.260498,969.293701 1674.197021,971.785645 1676.312256,974.049988 
	C1693.578003,992.533447 1710.677490,1011.172668 1727.779297,1029.808838 
	C1729.959229,1032.184082 1731.861694,1034.813965 1735.052002,1036.843018 
	C1736.877930,1025.265625 1736.458984,1014.151978 1736.526245,1003.066589 
	C1736.592773,992.120483 1736.540771,981.173706 1736.540771,969.452759 
	C1743.247070,969.452759 1749.348389,969.452759 1755.992188,969.452759 
	C1755.992188,1001.974365 1755.992188,1034.474243 1755.992188,1068.093628 
	C1748.882568,1067.778687 1742.037109,1067.475464 1734.587036,1066.647461 
z"/>
<path fill="#FFFFFF" opacity="1.000000" stroke="none" 
	d="
M1322.046143,984.988281 
	C1315.343750,987.005310 1308.820801,988.993225 1309.433594,996.539429 
	C1310.047241,1004.096008 1317.194824,1004.906738 1322.977173,1005.903992 
	C1332.477661,1007.542480 1342.159668,1008.165405 1351.626221,1009.952393 
	C1357.760620,1011.110413 1364.087036,1012.739502 1369.566040,1015.610535 
	C1388.140869,1025.344116 1389.534790,1048.784790 1372.049072,1060.418823 
	C1366.143555,1064.347900 1358.883667,1066.880249 1351.884155,1068.399414 
	C1334.933594,1072.078247 1318.105591,1070.743164 1301.922852,1064.131470 
	C1295.145874,1061.362671 1288.840210,1057.754150 1283.225342,1051.303833 
	C1287.684570,1047.098633 1291.912354,1043.111816 1296.569580,1038.719971 
	C1309.965088,1050.776978 1325.619507,1053.679688 1342.418213,1052.098389 
	C1346.022705,1051.759033 1349.674194,1050.939453 1353.083374,1049.722778 
	C1359.148682,1047.558472 1362.291260,1043.523071 1361.822388,1038.954834 
	C1361.260864,1033.483154 1357.430054,1030.866089 1352.595215,1029.815674 
	C1345.780518,1028.335205 1338.854858,1027.374634 1332.006836,1026.036987 
	C1323.212280,1024.319092 1314.278320,1023.020996 1305.714844,1020.491211 
	C1295.954590,1017.607971 1288.507202,1011.936340 1287.532837,1000.504272 
	C1286.513428,988.542358 1291.308960,979.842957 1301.566040,973.996155 
	C1321.512573,962.626282 1360.710083,963.299194 1379.270874,982.692993 
	C1375.415283,986.847046 1371.475952,991.091309 1367.196777,995.701721 
	C1353.983887,984.523804 1338.865356,982.687073 1322.046143,984.988281 
z"/>
<path fill="#FFFFFF" opacity="1.000000" stroke="none" 
	d="
M1323.655151,596.162231 
	C1328.221924,603.541138 1332.411743,610.300232 1336.905029,617.548706 
	C1334.804565,619.400513 1332.977661,621.239319 1330.928223,622.782898 
	C1308.849243,639.412048 1286.622314,655.848022 1264.723511,672.710144 
	C1260.167358,676.218262 1256.332642,676.692688 1251.060425,674.927795 
	C1236.563965,670.074951 1221.886963,665.761353 1207.223877,661.216553 
	C1210.897339,655.544495 1293.407349,593.028076 1313.683838,580.532349 
	C1316.874268,585.523560 1320.076294,590.532959 1323.655151,596.162231 
z"/>
<path fill="#FFFFFF" opacity="1.000000" stroke="none" 
	d="
M1888.617432,968.659485 
	C1891.007202,968.659119 1892.592651,968.659119 1895.775391,968.659119 
	C1888.680664,977.905273 1880.284912,983.676086 1872.951416,990.485413 
	C1865.649048,997.266174 1858.094116,1003.774780 1849.965698,1011.011963 
	C1867.170288,1029.534058 1884.074097,1047.732300 1902.647095,1067.727661 
	C1892.669189,1067.761841 1884.629883,1068.218018 1876.683960,1067.555420 
	C1874.304077,1067.357178 1871.959595,1064.245117 1869.982788,1062.112183 
	C1858.243652,1049.446045 1846.617188,1036.675293 1835.212280,1024.222778 
	C1833.879883,1024.466309 1833.106812,1024.385010 1832.641724,1024.725098 
	C1818.131592,1035.332886 1818.135864,1035.339111 1818.132446,1053.009766 
	C1818.131592,1057.606201 1818.132446,1062.202637 1818.132446,1067.357910 
	C1810.827026,1067.357910 1804.325195,1067.357910 1797.109375,1067.357910 
	C1797.109375,1034.874756 1797.109375,1002.443970 1797.109375,969.121338 
	C1800.363892,968.972900 1803.581299,968.767578 1806.801636,968.695435 
	C1810.082642,968.621887 1813.366699,968.679260 1817.973877,968.679260 
	C1817.973877,982.974548 1817.973877,996.663025 1817.973877,1012.401733 
	C1822.305298,1009.071594 1824.912598,1007.253296 1827.310669,1005.191650 
	C1838.670044,995.426819 1850.243774,985.886292 1861.184448,975.669861 
	C1866.968506,970.268738 1872.944580,967.405457 1880.829590,968.599792 
	C1883.108276,968.944946 1885.482788,968.657410 1888.617432,968.659485 
z"/>
<path fill="#FFFFFF" opacity="1.000000" stroke="none" 
	d="
M663.057678,1059.410156 
	C661.421448,1062.416138 660.188110,1064.766968 658.754517,1067.499634 
	C651.911621,1067.499634 645.003479,1067.499634 636.516357,1067.499634 
	C653.316956,1034.043945 670.695618,1001.737183 687.620544,969.457947 
	C689.170898,969.115356 690.114075,968.711365 691.047729,968.732239 
	C697.333679,968.872986 704.882446,967.036194 709.545166,969.888733 
	C714.179443,972.723816 716.064148,980.225708 718.889648,985.815063 
	C731.043823,1009.858582 743.110229,1033.946411 755.179993,1058.032471 
	C756.637634,1060.941284 757.921570,1063.937256 759.593872,1067.559570 
	C751.497437,1067.559570 744.282288,1067.559570 736.448975,1067.559570 
	C733.052917,1060.694092 729.535828,1053.584106 725.862793,1046.158691 
	C707.503296,1046.158691 689.272278,1046.158691 670.001709,1046.158691 
	C667.990723,1050.031372 665.725647,1054.393066 663.057678,1059.410156 
M691.377502,1029.423706 
	C699.778625,1029.335205 708.179688,1029.246826 717.822449,1029.145142 
	C711.160583,1015.176880 705.308838,1002.907349 699.145447,989.984375 
	C688.776794,1006.002869 681.046753,1022.450623 680.561707,1029.425781 
	C683.563171,1029.425781 686.540405,1029.425781 691.377502,1029.423706 
z"/>
<path fill="#FFFFFF" opacity="1.000000" stroke="none" 
	d="
M1056.242188,1067.635864 
	C1049.129883,1067.837891 1042.828247,1067.837891 1035.591187,1067.837891 
	C1036.753174,1064.795532 1037.456665,1062.315186 1038.599976,1060.057617 
	C1053.010986,1031.601318 1067.575317,1003.221985 1081.849854,974.697571 
	C1084.078247,970.244751 1086.686157,968.112244 1091.768433,968.521667 
	C1096.716553,968.920227 1101.721802,968.608276 1107.508057,968.608276 
	C1124.103638,1001.370972 1140.703613,1034.142578 1157.675415,1067.647827 
	C1149.508545,1067.647827 1142.569580,1067.647827 1134.877808,1067.647827 
	C1131.169312,1060.638428 1127.329346,1053.380615 1123.425781,1046.002563 
	C1105.216553,1046.002563 1087.294189,1046.002563 1068.646484,1046.002563 
	C1064.873779,1052.976562 1060.963257,1060.205200 1056.242188,1067.635864 
M1078.646484,1024.447876 
	C1078.471069,1025.963867 1078.295654,1027.479858 1078.151611,1028.723633 
	C1090.458374,1028.723633 1102.187988,1028.723633 1115.316528,1028.723633 
	C1108.774170,1015.314636 1102.804199,1003.078674 1096.017822,989.169250 
	C1089.864258,1001.770691 1084.664062,1012.419983 1078.646484,1024.447876 
z"/>
<path fill="#FFFFFF" opacity="1.000000" stroke="none" 
	d="
M1195.776489,1022.905029 
	C1181.954468,1005.004333 1168.584839,987.728149 1153.805542,968.630493 
	C1162.597778,968.630493 1169.161865,968.116638 1175.576782,968.871155 
	C1178.328613,969.194824 1181.381470,971.666626 1183.247070,974.001648 
	C1191.143311,983.884644 1198.622314,994.100281 1206.305786,1004.154663 
	C1208.270386,1006.725647 1210.425415,1009.151184 1212.911987,1012.148560 
	C1222.705078,999.174805 1232.167847,987.133240 1241.018677,974.657654 
	C1244.325195,969.997009 1247.872803,968.047302 1253.466431,968.554688 
	C1258.309326,968.994080 1263.223755,968.646057 1269.709106,968.646057 
	C1267.026123,972.603699 1265.376343,975.348328 1263.427368,977.860779 
	C1251.793335,992.858276 1240.225830,1007.911133 1228.333984,1022.702637 
	C1224.378052,1027.623169 1222.207397,1032.564331 1222.543701,1039.039673 
	C1223.025146,1048.307739 1222.666382,1057.619507 1222.666382,1067.440430 
	C1215.123047,1067.440430 1208.353516,1067.440430 1200.512695,1067.440430 
	C1200.512695,1056.368774 1200.333374,1045.784058 1200.595459,1035.210327 
	C1200.710571,1030.559204 1199.590942,1026.713013 1195.776489,1022.905029 
z"/>
<path fill="#FFFFFF" opacity="1.000000" stroke="none" 
	d="
M1502.013672,1067.958008 
	C1492.063354,1067.958252 1483.110352,1067.958252 1473.560547,1067.958252 
	C1473.560547,1034.857544 1473.560547,1002.398499 1473.560547,969.302734 
	C1480.344116,969.302734 1486.842041,969.302734 1494.104492,969.302734 
	C1494.104492,995.820679 1494.104492,1022.359802 1494.104492,1049.826294 
	C1515.624878,1049.826294 1536.428467,1049.826294 1557.915039,1049.826294 
	C1557.915039,1056.210083 1557.915039,1061.669922 1557.915039,1067.957764 
	C1539.475220,1067.957764 1521.243042,1067.957764 1502.013672,1067.958008 
z"/>
<path fill="#FFFFFF" opacity="1.000000" stroke="none" 
	d="
M784.921082,1000.008301 
	C784.918213,989.400574 784.918213,979.790161 784.918213,969.420410 
	C792.005859,969.420410 798.481506,969.420410 806.389221,969.420410 
	C806.420898,977.878296 806.466675,986.691162 806.483276,995.504028 
	C806.500244,1004.494324 806.488892,1013.484619 806.489258,1022.474915 
	C806.489685,1031.421509 806.489319,1040.368042 806.489319,1050.306885 
	C827.643127,1050.306885 848.149170,1050.306885 869.191650,1050.306885 
	C869.191650,1056.445312 869.191650,1061.591309 869.191650,1067.362793 
	C841.448730,1067.362793 813.957642,1067.362793 785.081299,1067.362793 
	C785.029053,1045.325684 784.976501,1023.165649 784.921082,1000.008301 
z"/>
<path fill="#FFFFFF" opacity="1.000000" stroke="none" 
	d="
M2386.649902,1567.040527 
	C2403.449951,1557.976685 2412.714111,1543.777344 2418.806152,1524.434937 
	C2423.172852,1533.146484 2425.705566,1540.274292 2429.969238,1546.144897 
	C2434.592529,1552.510376 2440.239990,1558.494019 2446.530029,1563.183105 
	C2452.527832,1567.654175 2459.928711,1570.243164 2467.515869,1574.064087 
	C2466.331055,1575.200073 2465.466553,1576.708374 2464.244873,1577.099243 
	C2443.017578,1583.887085 2429.060059,1597.893188 2422.086426,1619.003052 
	C2421.723633,1620.100464 2420.731201,1620.989868 2419.971436,1622.061523 
	C2419.524658,1621.616211 2372.268555,1574.501587 2371.488525,1573.723999 
	C2376.545410,1571.525513 2381.274658,1569.469482 2386.649902,1567.040527 
z"/>
<path fill="#FFFFFF" opacity="1.000000" stroke="none" 
	d="
M1590.972778,968.902466 
	C1597.450562,968.737976 1603.044312,968.737976 1609.282104,968.737976 
	C1609.282104,1001.877075 1609.282104,1034.247070 1609.282104,1067.461914 
	C1606.066284,1067.625610 1602.870483,1067.854126 1599.671021,1067.933105 
	C1596.361328,1068.014771 1593.047974,1067.951294 1589.268066,1067.951294 
	C1588.856445,1065.769775 1588.205078,1063.913818 1588.200928,1062.056274 
	C1588.135132,1033.470337 1588.106812,1004.884033 1588.236084,976.298523 
	C1588.246948,973.885254 1589.443237,971.477417 1590.972778,968.902466 
z"/>
<path fill="#FFFFFF" opacity="1.000000" stroke="none" 
	d="
M1539.374512,1163.444336 
	C1539.242310,1167.297485 1539.106934,1170.225830 1538.985352,1172.858398 
	C1533.878296,1175.342896 1530.915283,1173.239014 1528.173828,1169.791748 
	C1521.545166,1161.456787 1514.789917,1153.222046 1508.057617,1144.969971 
	C1505.977661,1142.420288 1503.807007,1139.944702 1501.158813,1136.823242 
	C1497.436035,1142.911133 1499.485840,1148.910767 1499.136841,1154.535767 
	C1498.768066,1160.478394 1499.054077,1166.461548 1499.054077,1173.155273 
	C1496.125610,1173.469482 1493.713257,1173.728271 1490.654297,1174.056396 
	C1490.654297,1155.554443 1490.654297,1137.723267 1490.654297,1119.905396 
	C1495.458984,1116.856201 1498.087158,1119.858887 1500.725952,1123.047974 
	C1507.727539,1131.510132 1514.770508,1139.937988 1521.797729,1148.379028 
	C1523.907959,1150.913940 1526.020264,1153.447021 1529.239136,1157.310059 
	C1531.273315,1143.949585 1529.313965,1131.809692 1530.663818,1119.308350 
	C1533.506714,1119.308350 1535.923706,1119.308350 1539.371338,1119.308350 
	C1539.371338,1134.048950 1539.371338,1148.284180 1539.374512,1163.444336 
z"/>
<path fill="#FFFFFF" opacity="1.000000" stroke="none" 
	d="
M1014.489014,1173.622437 
	C1003.808716,1170.254028 997.151367,1163.725220 994.385437,1153.664917 
	C989.833313,1137.107422 1000.414124,1121.229614 1017.695984,1118.331299 
	C1034.489868,1115.514648 1049.827759,1126.419678 1051.873291,1142.630737 
	C1054.050903,1159.887939 1041.843384,1173.991333 1024.174438,1174.476074 
	C1021.204590,1174.557495 1018.218445,1174.041016 1014.489014,1173.622437 
M1027.957642,1166.121704 
	C1029.810547,1165.417969 1031.825317,1164.980225 1033.489746,1163.966797 
	C1043.262939,1158.016479 1046.285400,1144.858154 1040.227661,1135.156860 
	C1034.528198,1126.029175 1021.545654,1123.120728 1011.984131,1128.829712 
	C1002.215027,1134.662720 999.148743,1147.913086 1005.444397,1157.643921 
	C1010.366821,1165.252197 1017.765137,1167.251343 1027.957642,1166.121704 
z"/>
<path fill="#FFFFFF" opacity="1.000000" stroke="none" 
	d="
M1391.649780,1135.785889 
	C1399.718628,1121.721069 1411.377197,1115.831787 1424.924316,1118.390381 
	C1440.761353,1121.381348 1450.290771,1134.249512 1448.436523,1150.139893 
	C1446.668823,1165.289673 1433.724121,1175.395630 1417.299438,1174.448120 
	C1401.128052,1173.515381 1389.618164,1161.838135 1389.785034,1146.226318 
	C1389.819702,1142.976807 1390.842163,1139.738037 1391.649780,1135.785889 
M1431.190430,1129.366333 
	C1427.749878,1128.255737 1424.375122,1126.532349 1420.855835,1126.153320 
	C1411.613647,1125.158081 1403.362305,1130.293091 1400.094849,1138.412964 
	C1396.681641,1146.894775 1398.863770,1156.372437 1405.531250,1162.023926 
	C1411.981689,1167.491455 1423.505615,1168.224731 1430.817017,1163.632935 
	C1438.072876,1159.076050 1441.984985,1149.553223 1439.171265,1140.992065 
	C1437.891724,1137.099243 1434.759033,1133.815552 1431.190430,1129.366333 
z"/>
<path fill="#FFFFFF" opacity="1.000000" stroke="none" 
	d="
M1169.868286,1159.547241 
	C1169.106079,1145.888794 1168.543457,1133.021606 1167.949463,1119.437988 
	C1171.628418,1119.217285 1174.054199,1119.071777 1177.718628,1118.851929 
	C1177.718628,1127.484985 1177.710693,1135.376221 1177.722900,1143.267578 
	C1177.727539,1146.262817 1177.618530,1149.269897 1177.838135,1152.251099 
	C1178.533447,1161.694702 1183.339722,1166.321899 1192.360107,1166.422974 
	C1201.348755,1166.523682 1206.919556,1161.916016 1207.472168,1152.729980 
	C1208.030884,1143.442627 1207.634399,1134.098633 1207.696533,1124.779785 
	C1207.707397,1123.145630 1207.916992,1121.512817 1208.076904,1119.294189 
	C1210.794189,1119.294189 1213.235107,1119.294189 1216.265015,1119.294189 
	C1216.265015,1131.348267 1216.698975,1142.977417 1216.130005,1154.557251 
	C1215.659424,1164.136108 1210.185547,1170.884521 1200.873413,1173.370850 
	C1191.092285,1175.982788 1181.592041,1175.194458 1174.186768,1167.110107 
	C1172.436035,1165.198853 1171.421265,1162.613647 1169.868286,1159.547241 
z"/>
<path fill="#FFFFFF" opacity="1.000000" stroke="none" 
	d="
M1600.601074,1142.057129 
	C1605.537109,1143.395630 1609.779297,1144.338867 1613.824341,1145.819946 
	C1619.317993,1147.830933 1622.381714,1151.848755 1622.658569,1157.886353 
	C1622.949463,1164.231567 1620.400757,1169.160889 1614.725342,1171.692505 
	C1603.989258,1176.481934 1593.285156,1175.440430 1583.037354,1169.938721 
	C1579.099487,1167.824463 1579.215210,1164.949341 1581.820190,1162.465698 
	C1588.953857,1163.890625 1595.578857,1165.475586 1602.294067,1166.418823 
	C1604.774170,1166.767212 1607.876465,1166.251709 1609.942261,1164.942383 
	C1611.864014,1163.724487 1613.649292,1161.010254 1613.863159,1158.796875 
	C1614.024902,1157.122559 1612.002075,1154.507080 1610.266968,1153.544922 
	C1607.425781,1151.969116 1604.037842,1151.364502 1600.862671,1150.409424 
	C1597.049805,1149.262329 1593.126465,1148.419067 1589.415771,1147.010376 
	C1583.428101,1144.737549 1580.597656,1139.989136 1580.786499,1133.740112 
	C1580.973267,1127.550293 1584.107544,1122.885010 1589.846436,1120.495117 
	C1600.025879,1116.255737 1609.914917,1117.268921 1620.060181,1122.853149 
	C1619.429321,1125.139282 1618.858643,1127.207275 1618.239990,1129.449219 
	C1616.901001,1129.362671 1615.958984,1129.413818 1615.067505,1129.225342 
	C1609.943115,1128.142456 1604.872803,1126.440674 1599.701294,1126.052246 
	C1595.219238,1125.715698 1590.929688,1127.569946 1590.017700,1132.803467 
	C1589.118652,1137.962280 1593.144897,1139.595825 1596.924561,1141.142944 
	C1597.839600,1141.517578 1598.851685,1141.655151 1600.601074,1142.057129 
z"/>
<path fill="#FFFFFF" opacity="1.000000" stroke="none" 
	d="
M945.159912,1144.753784 
	C953.130249,1147.471924 956.790161,1152.349731 956.031128,1160.139282 
	C955.393677,1166.681030 950.746460,1171.859863 943.128174,1173.588623 
	C934.112854,1175.634399 925.222168,1174.952515 917.032471,1170.203125 
	C913.096252,1167.920410 913.185547,1167.766357 915.845703,1162.111816 
	C921.618958,1163.616821 927.235596,1165.412109 932.989380,1166.439575 
	C935.819580,1166.944824 939.246704,1166.749023 941.773193,1165.546021 
	C944.141602,1164.418701 947.018066,1161.650635 947.195190,1159.409058 
	C947.363831,1157.275269 944.766479,1154.232788 942.589600,1152.790161 
	C940.221497,1151.220703 936.938965,1151.027100 934.051697,1150.246216 
	C930.844543,1149.378906 927.558838,1148.735229 924.440063,1147.622192 
	C918.263062,1145.417725 914.362183,1141.236206 914.217102,1134.348511 
	C914.083923,1128.023682 918.009705,1122.226440 924.571594,1119.921997 
	C934.511414,1116.431274 944.109375,1117.331299 953.662903,1123.331787 
	C952.913696,1125.535156 952.229187,1127.548218 951.495178,1129.706787 
	C950.054504,1129.463623 949.122803,1129.333740 948.202698,1129.146606 
	C943.074768,1128.103638 937.970459,1126.337036 932.817993,1126.186279 
	C927.205872,1126.022095 923.609802,1129.324097 923.409546,1133.241821 
	C923.147949,1138.358521 926.958191,1140.079834 930.860291,1141.240967 
	C935.313416,1142.566162 939.908752,1143.413086 945.159912,1144.753784 
z"/>
<path fill="#FFFFFF" opacity="1.000000" stroke="none" 
	d="
M1294.591309,1126.347656 
	C1290.451294,1126.348755 1287.201172,1126.348755 1283.006470,1126.348755 
	C1283.006470,1142.474976 1283.006470,1157.640869 1283.006470,1173.399780 
	C1279.665649,1173.399780 1277.274536,1173.399780 1274.074219,1173.399780 
	C1274.074219,1157.748047 1274.074219,1142.541260 1274.074219,1126.824951 
	C1267.418701,1126.524048 1261.529663,1126.257935 1255.601196,1125.989990 
	C1254.117310,1122.094971 1253.774902,1118.761963 1258.864136,1118.689209 
	C1272.766479,1118.489990 1286.673462,1118.620605 1300.451416,1118.620605 
	C1302.993164,1124.848267 1300.750610,1126.720825 1294.591309,1126.347656 
z"/>
<path fill="#FFFFFF" opacity="1.000000" stroke="none" 
	d="
M1104.507812,1165.949951 
	C1112.441895,1166.119629 1119.434448,1166.013916 1126.417603,1166.223877 
	C1130.444824,1166.345093 1130.437988,1166.574463 1130.937500,1173.371094 
	C1118.498901,1173.371094 1106.102539,1173.371094 1093.125000,1173.371094 
	C1093.125000,1155.460938 1093.125000,1137.935181 1093.125000,1119.273682 
	C1095.645386,1119.086670 1098.282227,1118.891113 1101.923584,1118.621094 
	C1101.923584,1131.901001 1101.814575,1144.145386 1101.998535,1156.385620 
	C1102.045776,1159.533203 1103.015991,1162.666870 1104.507812,1165.949951 
z"/>
<path fill="#FFFFFF" opacity="1.000000" stroke="none" 
	d="
M1340.680908,1119.889404 
	C1343.122559,1119.088257 1345.046021,1118.946655 1347.727783,1118.749023 
	C1347.727783,1137.054321 1347.727783,1154.808228 1347.727783,1173.335205 
	C1345.611694,1173.467407 1343.227905,1173.616333 1340.162598,1173.807739 
	C1340.162598,1155.611450 1340.162598,1138.080200 1340.680908,1119.889404 
z"/>
<path fill="#FFFFFF" opacity="1.000000" stroke="none" 
	d="
M690.447632,1029.424805 
	C686.540405,1029.425781 683.563171,1029.425781 680.561707,1029.425781 
	C681.046753,1022.450623 688.776794,1006.002869 699.145447,989.984375 
	C705.308838,1002.907349 711.160583,1015.176880 717.822449,1029.145142 
	C708.179688,1029.246826 699.778625,1029.335205 690.447632,1029.424805 
z"/>
<path fill="#FFFFFF" opacity="1.000000" stroke="none" 
	d="
M1079.055176,1023.758545 
	C1084.664062,1012.419983 1089.864258,1001.770691 1096.017822,989.169250 
	C1102.804199,1003.078674 1108.774170,1015.314636 1115.316528,1028.723633 
	C1102.187988,1028.723633 1090.458374,1028.723633 1078.151611,1028.723633 
	C1078.295654,1027.479858 1078.471069,1025.963867 1079.055176,1023.758545 
z"/>
<path fill="#FFFFFF" opacity="1.000000" stroke="none" 
	d="
M1027.129395,1166.261353 
	C1017.765137,1167.251343 1010.366821,1165.252197 1005.444397,1157.643921 
	C999.148743,1147.913086 1002.215027,1134.662720 1011.984131,1128.829712 
	C1021.545654,1123.120728 1034.528198,1126.029175 1040.227661,1135.156860 
	C1046.285400,1144.858154 1043.262939,1158.016479 1033.489746,1163.966797 
	C1031.825317,1164.980225 1029.810547,1165.417969 1027.129395,1166.261353 
z"/>
<path fill="#FFFFFF" opacity="1.000000" stroke="none" 
	d="
M1431.828735,1129.810913 
	C1434.759033,1133.815552 1437.891724,1137.099243 1439.171265,1140.992065 
	C1441.984985,1149.553223 1438.072876,1159.076050 1430.817017,1163.632935 
	C1423.505615,1168.224731 1411.981689,1167.491455 1405.531250,1162.023926 
	C1398.863770,1156.372437 1396.681641,1146.894775 1400.094849,1138.412964 
	C1403.362305,1130.293091 1411.613647,1125.158081 1420.855835,1126.153320 
	C1424.375122,1126.532349 1427.749878,1128.255737 1431.828735,1129.810913 
z"/>
</svg>