<svg xmlns="http://www.w3.org/2000/svg" viewBox="0 0 1000 680" width="1000" height="680">
  <g transform="translate(340.00 60) scale(0.8464)">
    <g transform="translate(-1.217875,229.749237) scale(0.100000,-0.100000)"
fill="#0F1D31" stroke="none">
<path d="M2203 2290 c-237 -50 -372 -300 -284 -530 58 -152 241 -263 399 -242
l61 9 89 -146 c49 -80 193 -319 322 -531 128 -212 233 -386 234 -387 1 -1 22
14 46 34 25 19 71 48 103 64 32 17 57 33 55 37 -4 8 -217 363 -462 769 l-176
293 25 39 c54 81 71 222 40 328 -53 179 -265 303 -452 263z"/>
<path d="M1620 1527 c-74 -56 -261 -195 -415 -309 -154 -113 -300 -222 -325
-241 -25 -19 -95 -71 -157 -116 l-112 -83 -58 23 c-45 17 -79 23 -148 23 -116
0 -183 -25 -263 -99 -133 -123 -167 -301 -87 -462 42 -84 91 -132 185 -177 59
-28 74 -31 165 -31 91 0 106 3 165 31 81 39 142 100 183 184 29 59 32 73 32
160 0 52 -3 111 -7 130 -8 34 -7 36 65 87 99 71 390 286 912 673 72 54 141
103 153 111 28 18 28 20 -11 47 -18 12 -55 51 -82 87 -27 36 -52 65 -55 64 -3
0 -66 -46 -140 -102z"/>
<path d="M1130 543 c-105 -80 -112 -87 -90 -94 14 -4 113 -32 220 -63 429
-126 581 -169 952 -275 l388 -111 596 0 597 0 -5 64 c-11 129 -101 257 -221
312 -56 26 -72 29 -167 29 -93 0 -111 -3 -163 -27 -74 -35 -152 -115 -189
-194 l-29 -61 -82 24 c-45 13 -334 96 -642 183 -308 88 -668 191 -800 229
-132 39 -242 71 -245 71 -3 0 -57 -39 -120 -87z"/>
</g>
    <g transform="translate(-9.994338,221.000000) scale(0.100000,-0.100000)"
fill="#0F1D31" stroke="none">
<path d="M2014 2188 l-19 -23 23 19 c21 18 27 26 19 26 -2 0 -12 -10 -23 -22z"/>
<path d="M2663 1910 c0 -25 2 -35 4 -22 2 12 2 32 0 45 -2 12 -4 2 -4 -23z"/>
<path d="M1369 1333 c-13 -16 -12 -17 4 -4 9 7 17 15 17 17 0 8 -8 3 -21 -13z"/>
<path d="M2000 1178 c-91 -67 -214 -157 -275 -201 -60 -44 -132 -96 -158 -115
-34 -25 -45 -37 -35 -42 7 -4 79 -27 160 -50 l147 -42 88 68 c111 88 363 272
377 277 9 3 -73 140 -122 204 l-17 23 -165 -122z"/>
<path d="M879 973 c-13 -16 -12 -17 4 -4 9 7 17 15 17 17 0 8 -8 3 -21 -13z"/>
<path d="M109 693 c-13 -16 -12 -17 4 -4 9 7 17 15 17 17 0 8 -8 3 -21 -13z"/>
<path d="M783 430 c0 -25 2 -35 4 -22 2 12 2 32 0 45 -2 12 -4 2 -4 -23z"/>
<path d="M3149 313 c-13 -16 -12 -17 4 -4 9 7 17 15 17 17 0 8 -8 3 -21 -13z"/>
<path d="M3680 285 c13 -14 26 -25 28 -25 3 0 -5 11 -18 25 -13 14 -26 25 -28
25 -3 0 5 -11 18 -25z"/>
<path d="M3104 268 l-19 -23 23 19 c12 11 22 21 22 23 0 8 -8 2 -26 -19z"/>
<path d="M659 153 c-13 -16 -12 -17 4 -4 16 13 21 21 13 21 -2 0 -10 -8 -17
-17z"/>
<path d="M3782 30 c0 -19 2 -27 5 -17 2 9 2 25 0 35 -3 9 -5 1 -5 -18z"/>
</g>
  </g>
  <text x="500.0" y="334" text-anchor="middle" fill="#0F1D31" font-family="'Montserrat','Inter','Helvetica Neue',Arial,sans-serif" font-weight="700" font-size="72" letter-spacing="2">ALWAYS LINK</text>
  <text x="500.0" y="424" text-anchor="middle" fill="#0F1D31" font-family="'Montserrat','Inter','Helvetica Neue',Arial,sans-serif" font-weight="400" font-size="32" letter-spacing="12">SOLUTIONS</text>
</svg>
