<svg xmlns="http://www.w3.org/2000/svg" viewBox="927.50 386.36 684.49 504.12" width="684" height="504">
  <path fill="#FFFFFF" opacity="1.000000" stroke="none" 
	d="
M1302.866455,772.691284 
	C1242.977783,755.460144 1183.856445,738.483948 1122.680786,720.917969 
	C1127.894531,717.045898 1131.781982,714.153748 1135.674805,711.268860 
	C1142.901367,705.913330 1150.335327,700.810852 1157.279297,695.111511 
	C1161.139282,691.943420 1164.561279,691.767212 1169.177979,693.106445 
	C1221.911255,708.404602 1274.702637,723.503357 1327.486938,738.625671 
	C1367.793457,750.173279 1408.110962,761.682922 1448.430298,773.185852 
	C1449.968262,773.624573 1451.577148,773.815063 1453.547607,774.197876 
	C1455.168457,770.561401 1456.541016,767.219788 1458.120850,763.979248 
	C1470.512329,738.562317 1497.228271,724.353760 1525.773071,727.951965 
	C1551.165649,731.152832 1573.841187,752.189575 1579.605347,777.893738 
	C1586.635620,809.243958 1569.307617,842.118164 1539.737915,853.528809 
	C1509.684204,865.126160 1475.569824,852.989929 1459.755127,824.349121 
	C1456.342407,818.168701 1452.146240,815.382874 1445.687988,813.564514 
	C1398.282593,800.217102 1350.973389,786.527832 1302.866455,772.691284 
z"/>
  <path fill="#FFFFFF" opacity="1.000000" stroke="none" 
	d="
M1076.486450,760.436646 
	C1060.625977,782.728027 1039.083862,791.272034 1013.372192,787.688416 
	C989.123047,784.308594 971.429138,770.510315 962.659851,747.492432 
	C952.852783,721.750610 957.983459,697.969849 977.172180,678.311401 
	C996.576416,658.432129 1020.345215,654.826050 1046.291260,663.274597 
	C1049.749634,664.400635 1053.026611,666.083435 1057.089233,667.805786 
	C1120.178467,620.848755 1183.476196,573.736450 1246.392334,526.908264 
	C1255.533447,537.310303 1264.442017,547.447632 1273.649292,557.925049 
	C1210.345093,604.956421 1146.499634,652.389771 1082.534180,699.912354 
	C1090.498657,721.311829 1088.609619,741.095947 1076.486450,760.436646 
z"/>
  <path fill="#FFFFFF" opacity="1.000000" stroke="none" 
	d="
M1478.651733,681.207764 
	C1482.306152,687.213379 1485.566895,692.600098 1489.063110,698.375854 
	C1477.354492,705.444580 1466.089600,712.245361 1453.660767,719.748962 
	C1436.272583,691.106812 1418.536011,661.922119 1400.831055,632.718140 
	C1383.259155,603.733521 1365.719238,574.729553 1348.382812,546.093323 
	C1305.469727,548.598022 1279.458130,533.609009 1269.522827,501.213257 
	C1260.887207,473.055481 1272.182373,443.233551 1297.413086,427.576813 
	C1322.979980,411.711548 1356.208008,415.141602 1377.548950,436.128082 
	C1396.795532,455.055115 1407.586426,487.386505 1383.990234,523.415588 
	C1415.305176,575.627136 1446.781616,628.107910 1478.651733,681.207764 
z"/>
  <path fill="#FFFFFF" opacity="1.000000" stroke="none" 
	d="
M1323.655151,596.162231 
	C1328.221924,603.541138 1332.411743,610.300232 1336.905029,617.548706 
	C1334.804565,619.400513 1332.977661,621.239319 1330.928223,622.782898 
	C1308.849243,639.412048 1286.622314,655.848022 1264.723511,672.710144 
	C1260.167358,676.218262 1256.332642,676.692688 1251.060425,674.927795 
	C1236.563965,670.074951 1221.886963,665.761353 1207.223877,661.216553 
	C1210.897339,655.544495 1293.407349,593.028076 1313.683838,580.532349 
	C1316.874268,585.523560 1320.076294,590.532959 1323.655151,596.162231 
z"/>
</svg>
